<svg width="181.000000" height="128.000000" viewBox="0 0 181 128" fill="none" xmlns="http://www.w3.org/2000/svg" xmlns:xlink="http://www.w3.org/1999/xlink">
	<desc>
			Created with Pixso.
	</desc>
	<defs>
		<filter id="filter_2_112_dd" x="75.085083" y="20.101440" width="105.914917" height="100.826050" filterUnits="userSpaceOnUse" color-interpolation-filters="sRGB">
			<feFlood flood-opacity="0" result="BackgroundImageFix"/>
			<feGaussianBlur in="BackgroundImage" stdDeviation="8.33333"/>
			<feComposite in2="SourceAlpha" operator="in" result="effect_backgroundBlur_1"/>
			<feColorMatrix in="SourceAlpha" type="matrix" values="0 0 0 0 0 0 0 0 0 0 0 0 0 0 0 0 0 0 127 0" result="hardAlpha"/>
			<feOffset dx="0" dy="2"/>
			<feGaussianBlur stdDeviation="1.33333"/>
			<feComposite in2="hardAlpha" operator="out" k2="-1" k3="1"/>
			<feColorMatrix type="matrix" values="0 0 0 0 0 0 0 0 0 0 0 0 0 0 0 0 0 0 0.25 0"/>
			<feBlend mode="normal" in2="effect_backgroundBlur_1" result="effect_dropShadow_2"/>
			<feBlend mode="normal" in="SourceGraphic" in2="effect_dropShadow_2" result="shape"/>
		</filter>
		<filter id="filter_2_89_dd" x="18.595703" y="51.043457" width="121.920227" height="76.956543" filterUnits="userSpaceOnUse" color-interpolation-filters="sRGB">
			<feFlood flood-opacity="0" result="BackgroundImageFix"/>
			<feGaussianBlur in="BackgroundImage" stdDeviation="8.33333"/>
			<feComposite in2="SourceAlpha" operator="in" result="effect_backgroundBlur_1"/>
			<feColorMatrix in="SourceAlpha" type="matrix" values="0 0 0 0 0 0 0 0 0 0 0 0 0 0 0 0 0 0 127 0" result="hardAlpha"/>
			<feOffset dx="0" dy="2"/>
			<feGaussianBlur stdDeviation="1.33333"/>
			<feComposite in2="hardAlpha" operator="out" k2="-1" k3="1"/>
			<feColorMatrix type="matrix" values="0 0 0 0 0 0 0 0 0 0 0 0 0 0 0 0 0 0 0.25 0"/>
			<feBlend mode="normal" in2="effect_backgroundBlur_1" result="effect_dropShadow_2"/>
			<feBlend mode="normal" in="SourceGraphic" in2="effect_dropShadow_2" result="shape"/>
		</filter>
		<linearGradient id="paint_linear_2_112_0" x1="168.997284" y1="31.826073" x2="79.085068" y2="110.969856" gradientUnits="userSpaceOnUse">
			<stop stop-color="#FAFF00" stop-opacity="0.988235"/>
			<stop offset="1.000000" stop-color="#FFC700" stop-opacity="0.509804"/>
		</linearGradient>
		<linearGradient id="paint_linear_2_112_1" x1="172.763290" y1="29.173897" x2="81.438820" y2="101.666649" gradientUnits="userSpaceOnUse">
			<stop stop-color="#FBFF42" stop-opacity="0.211765"/>
			<stop offset="1.000000" stop-color="#FFFFFF" stop-opacity="0.501961"/>
		</linearGradient>
		<linearGradient id="paint_linear_2_89_0" x1="117.867538" y1="64.826065" x2="2.824440" y2="128.188400" gradientUnits="userSpaceOnUse">
			<stop stop-color="#35C2FF" stop-opacity="0.250980"/>
			<stop offset="0.984375" stop-color="#67D1FF"/>
		</linearGradient>
		<linearGradient id="paint_linear_2_89_1" x1="34.229553" y1="126.979301" x2="136.418823" y2="58.051064" gradientUnits="userSpaceOnUse">
			<stop stop-color="#35C2FF" stop-opacity="0.180392"/>
			<stop offset="1.000000" stop-color="#FFFFFF" stop-opacity="0.501961"/>
		</linearGradient>
	</defs>
	<g filter="url(#filter_2_112_dd)">
		<path id="Vector" d="M128.043 91.7209C121.55 91.7209 115.324 89.276 110.733 84.924C106.143 80.5719 103.564 74.6692 103.564 68.5145C103.564 62.3597 106.143 56.457 110.733 52.105C115.324 47.7529 121.55 45.308 128.043 45.308C134.535 45.308 140.761 47.7529 145.352 52.105C149.942 56.457 152.521 62.3597 152.521 68.5145C152.521 74.6692 149.942 80.5719 145.352 84.924C140.761 89.276 134.535 91.7209 128.043 91.7209ZM128.043 22.1014C129.341 22.1014 130.586 22.5905 131.504 23.4608C132.422 24.3313 132.938 25.5118 132.938 26.7428L132.938 36.0254C132.938 37.2563 132.422 38.4369 131.504 39.3073C130.586 40.1776 129.341 40.6666 128.043 40.6666C126.744 40.6666 125.499 40.1776 124.581 39.3073C123.663 38.4369 123.147 37.2563 123.147 36.0254L123.147 26.7428C123.147 25.5118 123.663 24.3313 124.581 23.4608C125.499 22.5905 126.744 22.1014 128.043 22.1014ZM128.043 96.3623C129.341 96.3623 130.586 96.8513 131.504 97.7217C132.422 98.5922 132.938 99.7727 132.938 101.004L132.938 110.286C132.938 111.517 132.422 112.698 131.504 113.568C130.586 114.438 129.341 114.927 128.043 114.927C126.744 114.927 125.499 114.438 124.581 113.568C123.663 112.698 123.147 111.517 123.147 110.286L123.147 101.004C123.147 99.7727 123.663 98.5922 124.581 97.7217C125.499 96.8513 126.744 96.3623 128.043 96.3623ZM83.9808 63.8732L93.7723 63.8732C95.0707 63.8732 96.316 64.3622 97.2341 65.2325C98.1523 66.103 98.6681 67.2836 98.6681 68.5145C98.6681 69.7455 98.1523 70.926 97.2341 71.7964C96.316 72.6667 95.0707 73.1558 93.7723 73.1558L83.9808 73.1558C82.6824 73.1558 81.4371 72.6667 80.519 71.7964C79.6009 70.926 79.0851 69.7455 79.0851 68.5145C79.0851 67.2836 79.6009 66.103 80.519 65.2325C81.4371 64.3622 82.6824 63.8732 83.9808 63.8732ZM162.313 63.8732L172.104 63.8732C173.403 63.8732 174.648 64.3622 175.566 65.2325C176.484 66.103 177 67.2836 177 68.5145C177 69.7455 176.484 70.926 175.566 71.7964C174.648 72.6667 173.403 73.1558 172.104 73.1558L162.313 73.1558C161.014 73.1558 159.769 72.6667 158.851 71.7964C157.933 70.926 157.417 69.7455 157.417 68.5145C157.417 67.2836 157.933 66.103 158.851 65.2325C159.769 64.3622 161.014 63.8732 162.313 63.8732ZM162.66 35.6958C163.578 36.5662 164.094 37.7465 164.094 38.9772C164.094 40.2079 163.578 41.3883 162.66 42.2587L155.738 48.8214C155.286 49.2648 154.746 49.6183 154.149 49.8616C153.551 50.1049 152.909 50.2328 152.259 50.2382C151.609 50.2435 150.964 50.1261 150.362 49.8927C149.761 49.6594 149.214 49.3147 148.755 48.8789C148.295 48.4431 147.931 47.9249 147.685 47.3546C147.439 46.7842 147.315 46.173 147.321 45.5568C147.326 44.9404 147.461 44.3314 147.718 43.7651C147.975 43.199 148.348 42.6868 148.815 42.2587L155.738 35.6958C156.656 34.8257 157.901 34.3369 159.199 34.3369C160.497 34.3369 161.742 34.8257 162.66 35.6958ZM107.27 88.2075C108.188 89.0779 108.703 90.2582 108.703 91.4889C108.703 92.7196 108.188 93.8999 107.27 94.7704L100.347 101.333C99.8957 101.776 99.3555 102.13 98.7582 102.373C98.1609 102.616 97.5184 102.745 96.8684 102.75C96.2183 102.755 95.5737 102.638 94.972 102.404C94.3703 102.171 93.8237 101.826 93.364 101.391C92.9044 100.955 92.5408 100.437 92.2947 99.8663C92.0485 99.2959 91.9246 98.6847 91.9303 98.0685C91.9359 97.4521 92.071 96.8431 92.3276 96.2769C92.5842 95.7106 92.9572 95.1985 93.4247 94.7704L100.347 88.2075C101.265 87.3374 102.51 86.8486 103.809 86.8486C105.107 86.8486 106.352 87.3374 107.27 88.2075ZM100.347 35.6958L107.27 42.2587C108.162 43.134 108.655 44.3064 108.644 45.5233C108.633 46.7402 108.118 47.9044 107.21 48.7649C106.303 49.6255 105.075 50.1135 103.791 50.1241C102.507 50.1346 101.271 49.6669 100.347 48.8214L93.4296 42.2587C92.5378 41.3833 92.0444 40.2108 92.0555 38.9939C92.0667 37.777 92.5815 36.6129 93.4893 35.7523C94.397 34.8918 95.6249 34.4037 96.9085 34.3931C98.1922 34.3826 99.4288 34.8503 100.352 35.6958L100.347 35.6958ZM155.738 88.2075L162.66 94.7704C163.552 95.6458 164.046 96.8181 164.034 98.035C164.023 99.252 163.508 100.416 162.601 101.277C161.693 102.137 160.465 102.625 159.181 102.636C157.898 102.646 156.661 102.179 155.738 101.333L148.815 94.7704C148.348 94.3422 147.975 93.8301 147.718 93.2638C147.461 92.6975 147.326 92.0885 147.321 91.4723C147.315 90.856 147.439 90.2448 147.685 89.6744C147.931 89.104 148.295 88.5858 148.755 88.15C149.214 87.7142 149.761 87.3696 150.362 87.1362C150.964 86.9028 151.609 86.7854 152.259 86.7908C152.909 86.7961 153.551 86.9242 154.149 87.1675C154.746 87.4106 155.286 87.7643 155.738 88.2075Z" fill="url(#paint_linear_2_112_0)" fill-opacity="1.000000" fill-rule="nonzero"/>
	</g>
	<path id="Vector" d="M128.043 22.1014C129.341 22.1014 130.586 22.5905 131.504 23.4608C132.422 24.3313 132.938 25.5118 132.938 26.7428L132.938 36.0254C132.938 37.2563 132.422 38.4369 131.504 39.3073C130.586 40.1776 129.341 40.6666 128.043 40.6666C126.744 40.6666 125.499 40.1776 124.581 39.3073C123.663 38.4369 123.147 37.2563 123.147 36.0254L123.147 26.7428C123.147 25.5118 123.663 24.3313 124.581 23.4608C125.499 22.5905 126.744 22.1014 128.043 22.1014ZM129.713 23.4406C130.112 23.6189 130.48 23.8676 130.816 24.1865C131.232 24.5809 131.533 25.0197 131.717 25.5026C131.865 25.8878 131.938 26.3011 131.938 26.7428L131.938 36.0254C131.938 36.4669 131.865 36.8804 131.717 37.2656C131.533 37.7485 131.232 38.1871 130.816 38.5815C130.48 38.9005 130.112 39.1492 129.713 39.3275C129.206 39.5536 128.65 39.6666 128.043 39.6666C127.435 39.6666 126.879 39.5536 126.372 39.3275C125.973 39.1492 125.605 38.9005 125.269 38.5815C124.853 38.1871 124.552 37.7485 124.368 37.2656C124.22 36.8804 124.147 36.4669 124.147 36.0254L124.147 26.7428C124.147 26.3011 124.22 25.8878 124.368 25.5026C124.552 25.0197 124.853 24.5809 125.269 24.1865C125.605 23.8676 125.973 23.6189 126.372 23.4406C126.879 23.2145 127.435 23.1014 128.043 23.1014C128.65 23.1014 129.206 23.2145 129.713 23.4406ZM98.6906 34.6958C98.1268 34.4927 97.5231 34.3881 96.9085 34.3931C95.6249 34.4037 94.397 34.8918 93.4893 35.7523C92.5815 36.6129 92.0667 37.777 92.0555 38.9939C92.0444 40.2108 92.5378 41.3833 93.4296 42.2587L100.347 48.8214C101.271 49.6669 102.507 50.1346 103.791 50.1241C105.075 50.1135 106.303 49.6255 107.21 48.7649C108.118 47.9044 108.633 46.7402 108.644 45.5233C108.655 44.3064 108.162 43.134 107.27 42.2587L101.402 36.6958L100.35 35.6984L100.347 35.6958L100.352 35.6958C100.351 35.6951 100.35 35.6942 100.35 35.6935C99.8688 35.2539 99.3033 34.9166 98.6906 34.6958ZM99.5907 36.3564C99.2757 36.083 98.9357 35.8678 98.5707 35.7107C98.067 35.494 97.5157 35.3882 96.9167 35.3931C96.3158 35.3981 95.7649 35.5138 95.264 35.7402C94.8709 35.918 94.5087 36.1639 94.1772 36.478C93.7654 36.8685 93.4669 37.3029 93.2819 37.7811C93.1349 38.1608 93.0594 38.5681 93.0555 39.0031C93.0513 39.4579 93.1249 39.8828 93.2764 40.278C93.4521 40.7365 93.7326 41.1549 94.1179 41.5332L101.023 48.0839C101.362 48.3942 101.73 48.635 102.129 48.8065C102.632 49.0232 103.184 49.1292 103.783 49.1241C104.384 49.1193 104.935 49.0035 105.435 48.7771C105.829 48.5994 106.191 48.3534 106.522 48.0392C106.934 47.6487 107.233 47.2145 107.418 46.7362C107.565 46.3566 107.64 45.9492 107.644 45.5142C107.648 45.0773 107.579 44.6672 107.438 44.2838C107.263 43.8073 106.975 43.3721 106.575 42.978L99.5907 36.3564ZM162.66 35.6958C163.578 36.5662 164.094 37.7465 164.094 38.9772C164.094 40.2079 163.578 41.3883 162.66 42.2587L155.738 48.8214C155.286 49.2648 154.746 49.6183 154.149 49.8616C153.551 50.1049 152.909 50.2328 152.259 50.2382C151.609 50.2435 150.964 50.1261 150.362 49.8927C149.761 49.6594 149.214 49.3147 148.755 48.8789C148.295 48.4431 147.931 47.9249 147.685 47.3546C147.439 46.7842 147.315 46.173 147.321 45.5568C147.326 44.9404 147.461 44.3314 147.718 43.7651C147.975 43.199 148.348 42.6868 148.815 42.2587L155.738 35.6958C156.656 34.8257 157.901 34.3369 159.199 34.3369C160.497 34.3369 161.742 34.8257 162.66 35.6958ZM162.873 37.7365C163.02 38.1218 163.094 38.5354 163.094 38.9772C163.094 39.4187 163.02 39.832 162.873 40.2173C162.688 40.7001 162.388 41.1387 161.972 41.533L155.05 48.0957C154.868 48.2744 154.672 48.433 154.463 48.5712C154.247 48.7142 154.016 48.8357 153.771 48.9354C153.563 49.0204 153.35 49.0875 153.133 49.1367C152.846 49.2019 152.552 49.2357 152.251 49.2383C151.952 49.2407 151.66 49.2123 151.375 49.1531C151.154 49.1073 150.937 49.0431 150.724 48.9604C150.406 48.8369 150.112 48.6786 149.844 48.4855C149.703 48.3843 149.569 48.2736 149.443 48.1532C149.204 47.9276 149.003 47.6797 148.837 47.4095C148.749 47.2655 148.671 47.1151 148.603 46.9584C148.495 46.7079 148.418 46.452 148.372 46.1907C148.336 45.9857 148.319 45.7775 148.321 45.5659C148.323 45.3567 148.343 45.1511 148.382 44.9491C148.433 44.686 148.515 44.429 148.629 44.1779C148.699 44.0231 148.779 43.8748 148.87 43.7328C149.04 43.4642 149.247 43.2188 149.49 42.9962L156.426 36.4215C156.762 36.1028 157.13 35.8544 157.529 35.6761C158.035 35.45 158.592 35.3369 159.199 35.3369C159.806 35.3369 160.363 35.45 160.869 35.6759C161.268 35.8541 161.636 36.1028 161.972 36.4216C162.388 36.8157 162.688 37.254 162.873 37.7365ZM128.043 91.7209C121.55 91.7209 115.324 89.276 110.733 84.924C106.143 80.5719 103.564 74.6692 103.564 68.5145C103.564 62.3597 106.143 56.457 110.733 52.105C115.324 47.7529 121.55 45.308 128.043 45.308C134.535 45.308 140.761 47.7529 145.352 52.105C149.942 56.457 152.521 62.3597 152.521 68.5145C152.521 74.6692 149.942 80.5719 145.352 84.924C140.761 89.276 134.535 91.7209 128.043 91.7209ZM118.205 88.7533C115.75 87.6768 113.489 86.1583 111.421 84.1982C108.926 81.8324 107.111 79.2001 105.978 76.3015C105.035 73.8901 104.564 71.2946 104.564 68.5145C104.564 65.7345 105.035 63.1389 105.978 60.7275C107.111 57.829 108.926 55.1967 111.421 52.8307C113.489 50.8706 115.75 49.3523 118.205 48.2756C121.197 46.9639 124.476 46.308 128.043 46.308C131.609 46.308 134.888 46.9639 137.88 48.2758C140.335 49.3523 142.596 50.8706 144.664 52.8307C147.159 55.1967 148.974 57.8289 150.107 60.7273C151.05 63.1387 151.521 65.7345 151.521 68.5145C151.521 71.2946 151.05 73.8904 150.107 76.3018C148.974 79.2002 147.159 81.8324 144.664 84.1982C142.596 86.1584 140.335 87.6769 137.879 88.7534C134.888 90.0652 131.609 90.7209 128.043 90.7209C124.476 90.7209 121.197 90.0651 118.205 88.7533ZM83.9808 63.8732L93.7723 63.8732C95.0707 63.8732 96.316 64.3622 97.2341 65.2325C98.1523 66.103 98.6681 67.2836 98.6681 68.5145C98.6681 69.7455 98.1523 70.926 97.2341 71.7964C96.316 72.6667 95.0707 73.1558 93.7723 73.1558L83.9808 73.1558C82.6824 73.1558 81.4371 72.6667 80.519 71.7964C79.6009 70.926 79.0851 69.7455 79.0851 68.5145C79.0851 67.2836 79.6009 66.103 80.519 65.2325C81.4371 64.3622 82.6824 63.8732 83.9808 63.8732ZM162.313 63.8732L172.104 63.8732C173.403 63.8732 174.648 64.3622 175.566 65.2325C176.484 66.103 177 67.2836 177 68.5145C177 69.7455 176.484 70.926 175.566 71.7964C174.648 72.6667 173.403 73.1558 172.104 73.1558L162.313 73.1558C161.014 73.1558 159.769 72.6667 158.851 71.7964C157.933 70.926 157.417 69.7455 157.417 68.5145C157.417 67.2836 157.933 66.103 158.851 65.2325C159.769 64.3622 161.014 63.8732 162.313 63.8732ZM83.9808 64.8732L93.7723 64.8732C94.3795 64.8732 94.9362 64.9862 95.4424 65.2123C95.8417 65.3906 96.2097 65.6393 96.5461 65.9583C96.9622 66.3527 97.2625 66.7914 97.4471 67.2743C97.5944 67.6595 97.6681 68.0729 97.6681 68.5145C97.6681 68.9561 97.5944 69.3695 97.4471 69.7548C97.2625 70.2377 96.9622 70.6763 96.5461 71.0707C96.2097 71.3896 95.8418 71.6383 95.4424 71.8167C94.9362 72.0427 94.3795 72.1558 93.7723 72.1558L83.9808 72.1558C83.3736 72.1558 82.8169 72.0427 82.3107 71.8167C81.9114 71.6383 81.5435 71.3896 81.207 71.0707C80.791 70.6763 80.4907 70.2377 80.306 69.7548C80.1588 69.3695 80.0851 68.9561 80.0851 68.5145C80.0851 68.0729 80.1588 67.6595 80.306 67.2743C80.4907 66.7914 80.791 66.3527 81.207 65.9583C81.5435 65.6393 81.9114 65.3906 82.3107 65.2123C82.817 64.9862 83.3737 64.8732 83.9808 64.8732ZM162.313 64.8732L172.104 64.8732C172.711 64.8732 173.268 64.9862 173.774 65.2123C174.174 65.3906 174.542 65.6393 174.878 65.9583C175.294 66.3527 175.594 66.7913 175.779 67.2742C175.926 67.6594 176 68.0729 176 68.5145C176 68.9561 175.926 69.3695 175.779 69.7548C175.594 70.2377 175.294 70.6763 174.878 71.0707C174.542 71.3896 174.174 71.6383 173.774 71.8167C173.268 72.0427 172.711 72.1558 172.104 72.1558L162.313 72.1558C161.706 72.1558 161.149 72.0427 160.643 71.8167C160.243 71.6383 159.875 71.3896 159.539 71.0707C159.123 70.6763 158.823 70.2377 158.638 69.7548C158.491 69.3695 158.417 68.9561 158.417 68.5145C158.417 68.0729 158.491 67.6594 158.638 67.2742C158.823 66.7913 159.123 66.3527 159.539 65.9583C159.875 65.6393 160.243 65.3906 160.643 65.2123C161.149 64.9862 161.706 64.8732 162.313 64.8732ZM162.66 94.7704C163.552 95.6458 164.046 96.8181 164.034 98.035C164.023 99.252 163.508 100.416 162.601 101.277C161.693 102.137 160.465 102.625 159.181 102.636C157.898 102.646 156.661 102.179 155.738 101.333L148.815 94.7704C148.348 94.3422 147.975 93.8301 147.718 93.2638C147.461 92.6975 147.326 92.0885 147.321 91.4723C147.315 90.856 147.439 90.2448 147.685 89.6744C147.931 89.104 148.295 88.5858 148.755 88.15C149.214 87.7142 149.761 87.3696 150.362 87.1362C150.964 86.9028 151.609 86.7854 152.259 86.7908C152.909 86.7961 153.551 86.9242 154.149 87.1675C154.746 87.4106 155.286 87.7643 155.738 88.2075L162.66 94.7704ZM107.27 88.2075C108.188 89.0779 108.703 90.2582 108.703 91.4889C108.703 92.7196 108.188 93.8999 107.27 94.7704L100.347 101.333C99.8957 101.776 99.3555 102.13 98.7582 102.373C98.1609 102.616 97.5184 102.745 96.8684 102.75C96.2183 102.755 95.5737 102.638 94.972 102.404C94.3703 102.171 93.8237 101.826 93.364 101.391C92.9044 100.955 92.5408 100.437 92.2947 99.8663C92.0485 99.2959 91.9246 98.6847 91.9303 98.0685C91.9359 97.4521 92.071 96.8431 92.3276 96.2769C92.5842 95.7106 92.9572 95.1985 93.4247 94.7704L100.347 88.2075C101.265 87.3374 102.51 86.8486 103.809 86.8486C105.107 86.8486 106.352 87.3374 107.27 88.2075ZM155.037 88.9211L161.966 95.4897C162.366 95.8838 162.653 96.319 162.829 96.7957C162.97 97.179 163.039 97.5891 163.034 98.0259C163.031 98.4608 162.955 98.8682 162.808 99.2478C162.623 99.7261 162.325 100.16 161.913 100.551C161.581 100.865 161.219 101.111 160.826 101.289C160.325 101.515 159.774 101.631 159.173 101.636C158.574 101.641 158.023 101.535 157.519 101.318C157.12 101.147 156.752 100.906 156.413 100.596L149.503 94.0447C149.202 93.7689 148.957 93.4619 148.767 93.1238C148.717 93.035 148.671 92.9441 148.629 92.8511C148.515 92.6001 148.433 92.3431 148.382 92.0801C148.343 91.8779 148.323 91.6724 148.321 91.4631C148.319 91.2515 148.336 91.0431 148.372 90.8383C148.418 90.5769 148.495 90.321 148.603 90.0707C148.671 89.9137 148.749 89.7632 148.837 89.619C149.003 89.349 149.205 89.1013 149.443 88.8757C149.569 88.7554 149.703 88.6447 149.844 88.5433C150.112 88.3503 150.406 88.192 150.724 88.0686C150.937 87.986 151.154 87.9218 151.374 87.876C151.66 87.8167 151.952 87.7883 152.251 87.7908C152.552 87.7932 152.845 87.827 153.132 87.892C153.349 87.9413 153.562 88.0084 153.771 88.0935C154.088 88.2227 154.38 88.3862 154.645 88.5845C154.783 88.6874 154.913 88.7997 155.037 88.9211ZM107.482 90.2483C107.63 90.6337 107.703 91.0471 107.703 91.4889C107.703 91.9304 107.63 92.3436 107.482 92.7289C107.298 93.2117 106.998 93.6503 106.582 94.0447L99.6593 100.607C99.4772 100.786 99.2816 100.945 99.0727 101.083C98.8565 101.226 98.6259 101.347 98.381 101.447C98.1718 101.532 97.9586 101.599 97.7413 101.649C97.4547 101.714 97.1609 101.747 96.8602 101.75C96.5613 101.752 96.2689 101.724 95.9828 101.664C95.7626 101.619 95.5462 101.555 95.3336 101.472C95.0149 101.349 94.7213 101.19 94.4527 100.997C94.3123 100.896 94.1787 100.785 94.0521 100.665C93.814 100.439 93.6123 100.192 93.4468 99.9214C93.3585 99.7773 93.2805 99.6268 93.2128 99.47C93.1048 99.2197 93.0278 98.964 92.9816 98.7028C92.9454 98.4978 92.9283 98.2893 92.9302 98.0776C92.9322 97.8683 92.9526 97.6626 92.9917 97.4606C93.0425 97.1975 93.1248 96.9406 93.2384 96.6896C93.3084 96.5352 93.3884 96.3871 93.4785 96.2454C93.6495 95.9766 93.8567 95.7307 94.1 95.5078L101.035 88.9332C101.372 88.6145 101.739 88.3661 102.138 88.1879C102.645 87.9617 103.201 87.8486 103.809 87.8486C104.416 87.8486 104.972 87.9617 105.479 88.1876C105.878 88.366 106.246 88.6145 106.582 88.9333C106.998 89.3275 107.298 89.7657 107.482 90.2483ZM128.043 96.3623C129.341 96.3623 130.586 96.8513 131.504 97.7217C132.422 98.5922 132.938 99.7727 132.938 101.004L132.938 110.286C132.938 111.517 132.422 112.698 131.504 113.568C130.586 114.438 129.341 114.927 128.043 114.927C126.744 114.927 125.499 114.438 124.581 113.568C123.663 112.698 123.147 111.517 123.147 110.286L123.147 101.004C123.147 99.7727 123.663 98.5922 124.581 97.7217C125.499 96.8513 126.744 96.3623 128.043 96.3623ZM129.713 97.7014C130.112 97.8798 130.48 98.1284 130.816 98.4474C131.232 98.8418 131.533 99.2805 131.717 99.7634C131.865 100.149 131.938 100.562 131.938 101.004L131.938 110.286C131.938 110.728 131.865 111.141 131.717 111.526C131.533 112.009 131.232 112.448 130.816 112.842C130.48 113.161 130.112 113.41 129.713 113.589C129.206 113.814 128.65 113.927 128.043 113.927C127.435 113.927 126.879 113.814 126.372 113.589C125.973 113.41 125.605 113.161 125.269 112.842C124.853 112.448 124.552 112.009 124.368 111.526C124.22 111.141 124.147 110.728 124.147 110.286L124.147 101.004C124.147 100.562 124.22 100.149 124.368 99.7634C124.552 99.2805 124.853 98.8418 125.269 98.4474C125.605 98.1284 125.973 97.8798 126.372 97.7014C126.879 97.4753 127.435 97.3623 128.043 97.3623C128.65 97.3623 129.206 97.4753 129.713 97.7014Z" fill="url(#paint_linear_2_112_1)" fill-opacity="1.000000" fill-rule="evenodd"/>
	<g filter="url(#filter_2_89_dd)">
		<path id="Vector" d="M115.957 83.7065C115.041 75.9417 111.351 68.7 105.49 63.1687C99.6285 57.6375 91.945 54.1448 83.6987 53.2635C75.4525 52.3822 67.1328 54.1644 60.1037 58.3181C53.0746 62.4718 47.7533 68.7504 45.0121 76.1244C38.7308 76.6084 32.8918 79.3608 28.7173 83.8055C24.543 88.2504 22.3568 94.0428 22.6165 99.9705C22.8761 105.898 25.5615 111.502 30.1105 115.608C34.6594 119.714 40.7193 122.004 47.0217 122L116.176 122C121.571 122 126.744 119.983 130.559 116.392C134.373 112.801 136.516 107.931 136.516 102.853C136.516 97.7751 134.373 92.9052 130.559 89.3145C126.744 85.7238 121.571 83.7065 116.176 83.7065L115.957 83.7065Z" fill="url(#paint_linear_2_89_0)" fill-opacity="1.000000" fill-rule="nonzero"/>
	</g>
	<path id="Vector" d="M115.957 83.7065C115.041 75.9417 111.351 68.7 105.49 63.1687C99.6285 57.6375 91.945 54.1448 83.6987 53.2635C75.4525 52.3822 67.1328 54.1644 60.1037 58.3181C53.0746 62.4718 47.7533 68.7504 45.0121 76.1244C38.7308 76.6084 32.8918 79.3608 28.7173 83.8055C24.543 88.2504 22.3568 94.0428 22.6165 99.9705C22.8761 105.898 25.5615 111.502 30.1105 115.608C34.6594 119.714 40.7193 122.004 47.0217 122L116.176 122C121.571 122 126.744 119.983 130.559 116.392C134.373 112.801 136.516 107.931 136.516 102.853C136.516 97.7751 134.373 92.9052 130.559 89.3145C126.744 85.7238 121.571 83.7065 116.176 83.7065L115.957 83.7065ZM96.6058 58.0607C99.5577 59.5792 102.29 61.5243 104.803 63.896C108.124 67.0298 110.651 70.5212 112.383 74.37C113.707 77.3123 114.567 80.4635 114.964 83.8236L115.068 84.7065L116.176 84.7065C119.155 84.7065 121.89 85.2573 124.381 86.3591C126.367 87.2372 128.197 88.465 129.873 90.0426C131.951 91.998 133.454 94.1759 134.384 96.576C135.139 98.5222 135.516 100.615 135.516 102.853C135.516 105.092 135.139 107.184 134.384 109.13C133.454 111.531 131.951 113.708 129.873 115.664C128.197 117.242 126.367 118.469 124.381 119.347C121.89 120.449 119.155 121 116.176 121L47.0209 121C43.52 121.002 40.2909 120.37 37.3336 119.104C34.9765 118.094 32.7922 116.681 30.7805 114.865C28.2653 112.595 26.4101 110.046 25.215 107.218C24.2629 104.964 23.7297 102.534 23.6155 99.9268C23.499 97.266 23.8334 94.7552 24.6189 92.3947C25.5687 89.5404 27.1778 86.9055 29.4463 84.4901C31.2563 82.5629 33.2659 81.0092 35.4751 79.8291C38.3433 78.2968 41.5479 77.3943 45.0889 77.1215L45.7266 77.0723L45.9495 76.4728C47.0858 73.4161 48.5912 70.6357 50.4658 68.1317C53.1122 64.5967 56.4944 61.6124 60.6125 59.1791C63.851 57.2653 67.2188 55.8846 70.7157 55.0369C74.8292 54.0397 79.1214 53.78 83.5925 54.2578C88.3223 54.7633 92.6601 56.031 96.6058 58.0607Z" fill="url(#paint_linear_2_89_1)" fill-opacity="1.000000" fill-rule="evenodd"/>
	<path id="Partly Cloudy" d="M3.03516 16L1.27734 16L1.27734 4.36328L5.42578 4.36328C8.12891 4.36328 9.45312 5.98828 9.45312 8.12891C9.45312 10.2773 8.12109 11.9102 5.42188 11.9102L3.03516 11.9102L3.03516 16ZM33.1861 4.36328L34.8853 4.36328L34.8853 16L33.1861 16L33.1861 4.36328ZM29.3406 7.27344L31.1296 7.27344L31.1296 8.63672L29.3406 8.63672L29.3406 13.4375C29.3406 14.4219 29.8367 14.6016 30.3874 14.6016C30.6609 14.6016 30.8679 14.5508 30.9812 14.5273L31.2898 15.9336C31.0906 16.0039 30.7273 16.1094 30.1882 16.1133C28.8484 16.1406 27.6374 15.375 27.6413 13.7891L27.6413 8.63672L26.364 8.63672L26.364 7.27344L27.6413 7.27344L27.6413 5.18359L29.3406 5.18359L29.3406 7.27344ZM3.03516 5.87109L3.03516 10.4219L5.26172 10.4219C6.97656 10.4219 7.6875 9.44922 7.6875 8.12891C7.6875 6.8125 6.97656 5.87109 5.23828 5.87109L3.03516 5.87109ZM22.0955 16L20.3963 16L20.3963 7.27344L22.0408 7.27344L22.0408 8.66016L22.1307 8.66016C22.4471 7.72266 23.3221 7.14062 24.3455 7.14062C24.5643 7.14062 24.8963 7.16016 25.0682 7.18359L25.0682 8.80859C24.9315 8.76562 24.533 8.70312 24.1815 8.70312C22.9783 8.70312 22.0955 9.52734 22.0955 10.6719L22.0955 16ZM16.4094 14.8086C16.0852 15.4609 15.2727 16.1914 13.8313 16.1914C12.1712 16.1914 10.8821 15.25 10.8821 13.5352C10.8821 11.5508 12.5735 11.1211 14.2259 10.9258C15.7962 10.7461 16.4329 10.7539 16.4329 10.1367L16.4329 10.0977C16.4329 9.10938 15.8704 8.53516 14.7727 8.53516C13.6321 8.53516 12.9954 9.12891 12.7454 9.75L11.1477 9.38672C11.7141 7.79688 13.1712 7.16016 14.7493 7.16016C16.136 7.16016 18.136 7.66406 18.136 10.2031L18.136 16L16.4759 16L16.4759 14.8086L16.4094 14.8086ZM41.0401 17.1641C40.5323 18.5391 39.6495 19.2734 38.2433 19.2734C37.7315 19.2734 37.2901 19.1758 37.087 19.0859L37.4933 17.6914C38.4268 17.9492 39.0323 17.8516 39.4659 16.6914L39.6768 16.1133L36.4815 7.27344L38.3018 7.27344L40.5128 14.0469L40.6026 14.0469L42.8136 7.27344L44.6378 7.27344L41.0401 17.1641ZM12.5462 13.5586C12.5462 14.3984 13.2376 14.8281 14.1985 14.8281C15.6126 14.8281 16.4368 13.8867 16.4368 12.8516L16.4368 11.7266C16.1946 11.9727 14.886 12.1211 14.3352 12.1914C13.3509 12.3242 12.5462 12.6484 12.5462 13.5586ZM6.13672 23.2031C8.59766 23.2031 10.5469 24.6602 10.9414 27.1484L9.17188 27.1484C8.87891 25.6406 7.63672 24.8086 6.15234 24.8086C4.14844 24.8086 2.64844 26.3594 2.64844 29.1836C2.64844 32.0273 4.15234 33.5586 6.14844 33.5586C7.62109 33.5586 8.87109 32.7383 9.17188 31.25L10.9414 31.2539C10.5625 33.5586 8.69141 35.1602 6.13672 35.1602C3.11328 35.1602 0.902344 32.9023 0.902344 29.1836C0.902344 25.4609 3.125 23.2031 6.13672 23.2031ZM12.9077 23.3633L14.6069 23.3633L14.6069 35L12.9077 35L12.9077 23.3633ZM41.8313 33.6406C41.5227 34.1992 40.8977 35.1719 39.3079 35.1719C37.1868 35.1719 35.6594 33.4766 35.6594 30.6523C35.6594 27.8242 37.2102 26.1602 39.3196 26.1602C40.9446 26.1602 41.5227 27.1484 41.8313 27.6875L41.9329 27.6875L41.9329 23.3633L43.6321 23.3633L43.6321 35L41.9719 35L41.9719 33.6406L41.8313 33.6406ZM24.6367 30.6758C24.6367 33.375 23.0273 35.1758 20.5664 35.1758C18.1094 35.1758 16.5 33.375 16.5 30.6758C16.5 27.9609 18.1094 26.1602 20.5664 26.1602C23.0273 26.1602 24.6367 27.9609 24.6367 30.6758ZM30.0075 33.5664C30.9606 33.5664 32.0621 32.8633 32.0582 31.3789L32.0582 26.2734L33.7614 26.2734L33.7614 35L32.0895 35L32.0895 33.4883L31.9996 33.4883C31.5973 34.4219 30.7028 35.1133 29.3903 35.1133C27.7145 35.1133 26.527 33.9883 26.527 31.8242L26.527 26.2734L28.2262 26.2734L28.2262 31.6211C28.2262 32.8086 28.9528 33.5664 30.0075 33.5664ZM49.9208 36.1641C49.413 37.5391 48.5302 38.2734 47.1239 38.2734C46.6122 38.2734 46.1708 38.1758 45.9677 38.0859L46.3739 36.6914C47.3075 36.9492 47.913 36.8516 48.3466 35.6914L48.5575 35.1133L45.3622 26.2734L47.1825 26.2734L49.3935 33.0469L49.4833 33.0469L51.6942 26.2734L53.5185 26.2734L49.9208 36.1641ZM18.2148 30.6719C18.2148 32.3477 18.9648 33.75 20.5742 33.75C22.1719 33.75 22.9219 32.3477 22.9219 30.6719C22.9219 29 22.1719 27.5781 20.5742 27.5781C18.9648 27.5781 18.2148 29 18.2148 30.6719ZM37.3743 30.6367C37.3743 32.3867 38.1634 33.7227 39.6829 33.7227C41.1477 33.7227 41.9602 32.4727 41.9602 30.6367C41.9602 28.8125 41.1634 27.6016 39.6829 27.6016C38.1477 27.6016 37.3743 28.9023 37.3743 30.6367Z" fill="#FFFFFF" fill-opacity="1.000000" fill-rule="evenodd"/>
</svg>
