<svg width="191.000000" height="144.000000" viewBox="0 0 191 144" fill="none" xmlns="http://www.w3.org/2000/svg" xmlns:xlink="http://www.w3.org/1999/xlink">
	<desc>
			Created with Pixso.
	</desc>
	<defs>
		<filter id="filter_5_16_dd" x="90.000000" y="30.000000" width="101.000000" height="68.000000" filterUnits="userSpaceOnUse" color-interpolation-filters="sRGB">
			<feFlood flood-opacity="0" result="BackgroundImageFix"/>
			<feGaussianBlur in="BackgroundImage" stdDeviation="8.33333"/>
			<feComposite in2="SourceAlpha" operator="in" result="effect_backgroundBlur_1"/>
			<feColorMatrix in="SourceAlpha" type="matrix" values="0 0 0 0 0 0 0 0 0 0 0 0 0 0 0 0 0 0 127 0" result="hardAlpha"/>
			<feOffset dx="0" dy="2"/>
			<feGaussianBlur stdDeviation="1.33333"/>
			<feComposite in2="hardAlpha" operator="out" k2="-1" k3="1"/>
			<feColorMatrix type="matrix" values="0 0 0 0 0 0 0 0 0 0 0 0 0 0 0 0 0 0 0.25 0"/>
			<feBlend mode="normal" in2="effect_backgroundBlur_1" result="effect_dropShadow_2"/>
			<feBlend mode="normal" in="SourceGraphic" in2="effect_dropShadow_2" result="shape"/>
		</filter>
		<filter id="filter_5_9_dd" x="20.000000" y="58.000000" width="129.000000" height="86.000000" filterUnits="userSpaceOnUse" color-interpolation-filters="sRGB">
			<feFlood flood-opacity="0" result="BackgroundImageFix"/>
			<feGaussianBlur in="BackgroundImage" stdDeviation="8.33333"/>
			<feComposite in2="SourceAlpha" operator="in" result="effect_backgroundBlur_1"/>
			<feColorMatrix in="SourceAlpha" type="matrix" values="0 0 0 0 0 0 0 0 0 0 0 0 0 0 0 0 0 0 127 0" result="hardAlpha"/>
			<feOffset dx="0" dy="2"/>
			<feGaussianBlur stdDeviation="1.33333"/>
			<feComposite in2="hardAlpha" operator="out" k2="-1" k3="1"/>
			<feColorMatrix type="matrix" values="0 0 0 0 0 0 0 0 0 0 0 0 0 0 0 0 0 0 0.25 0"/>
			<feBlend mode="normal" in2="effect_backgroundBlur_1" result="effect_dropShadow_2"/>
			<feBlend mode="normal" in="SourceGraphic" in2="effect_dropShadow_2" result="shape"/>
		</filter>
		<linearGradient id="paint_linear_5_16_0" x1="87.000000" y1="99.499962" x2="194.000046" y2="32.000000" gradientUnits="userSpaceOnUse">
			<stop stop-color="#5F66AC"/>
			<stop offset="0.984375" stop-color="#C3C9FC" stop-opacity="0.501961"/>
		</linearGradient>
		<linearGradient id="paint_linear_5_16_1" x1="177.502563" y1="96.332588" x2="94.079224" y2="36.357185" gradientUnits="userSpaceOnUse">
			<stop stop-color="#C3C9FC" stop-opacity="0.501961"/>
			<stop offset="1.000000" stop-color="#FFFFFF" stop-opacity="0.101961"/>
		</linearGradient>
		<linearGradient id="paint_linear_5_9_0" x1="125.192719" y1="73.327843" x2="24.000011" y2="132.500000" gradientUnits="userSpaceOnUse">
			<stop stop-color="#C3C9FC" stop-opacity="0.419608"/>
			<stop offset="1.000000" stop-color="#5F66AC" stop-opacity="0.501961"/>
			<stop offset="1.000000" stop-color="#5F66AC" stop-opacity="0.250980"/>
		</linearGradient>
		<linearGradient id="paint_linear_5_9_1" x1="36.356865" y1="143.632324" x2="144.896942" y2="65.664375" gradientUnits="userSpaceOnUse">
			<stop stop-color="#C3C9FC" stop-opacity="0.501961"/>
			<stop offset="1.000000" stop-color="#FFFFFF" stop-opacity="0.501961"/>
		</linearGradient>
	</defs>
	<g filter="url(#filter_5_16_dd)">
		<path id="Vector" d="M110.784 58.6804C111.531 51.9241 114.544 45.6228 119.329 40.8101C124.113 35.9973 130.386 32.9583 137.118 32.1914C143.85 31.4246 150.642 32.9753 156.38 36.5896C162.118 40.2036 166.462 45.6667 168.7 52.083C173.828 52.5042 178.595 54.8992 182.003 58.7666C185.41 62.634 187.195 67.6741 186.983 72.8318C186.771 77.9897 184.579 82.8652 180.865 86.438C177.152 90.0107 172.205 92.0039 167.06 92L110.604 92C106.201 92 101.977 90.2449 98.8633 87.1204C95.7494 83.9961 94 79.7585 94 75.3401C94 70.9216 95.7494 66.6841 98.8633 63.5598C101.977 60.4355 106.201 58.6804 110.604 58.6804L110.784 58.6804Z" fill="url(#paint_linear_5_16_0)" fill-opacity="1.000000" fill-rule="nonzero"/>
	</g>
	<path id="Vector" d="M110.784 58.6804C111.531 51.9241 114.544 45.6228 119.329 40.8101C124.113 35.9973 130.386 32.9583 137.118 32.1914C143.85 31.4246 150.642 32.9753 156.38 36.5896C162.118 40.2036 166.462 45.6667 168.7 52.083C173.828 52.5042 178.595 54.8992 182.003 58.7666C185.41 62.634 187.195 67.6741 186.983 72.8318C186.771 77.9897 184.579 82.8652 180.865 86.438C177.152 90.0107 172.205 92.0039 167.06 92L110.604 92C106.201 92 101.977 90.2449 98.8633 87.1204C95.7494 83.9961 94 79.7585 94 75.3401C94 70.9216 95.7494 66.6841 98.8633 63.5598C101.977 60.4355 106.201 58.6804 110.604 58.6804L110.784 58.6804ZM127.974 35.8079Q123.637 37.8948 120.038 41.5151Q116.493 45.0806 114.433 49.3604Q112.34 53.7068 111.778 58.7903L111.679 59.6804L110.604 59.6804Q107.393 59.6804 104.648 60.8127Q101.871 61.9592 99.5716 64.2659Q97.2996 66.5454 96.1567 69.2944Q95 72.0769 95 75.3401Q95 78.6033 96.1567 81.3857Q97.2995 84.1348 99.5716 86.4146Q101.871 88.7212 104.648 89.8674Q107.393 91 110.604 91L167.06 91Q170.845 91.0029 174.106 89.698Q177.407 88.3774 180.172 85.7173Q182.903 83.0898 184.355 79.8833Q185.826 76.6343 185.984 72.7908Q186.142 68.9512 184.945 65.5947Q183.761 62.2749 181.252 59.4277Q178.713 56.5454 175.528 54.9563Q172.387 53.3892 168.618 53.0796L167.97 53.0264L167.756 52.4124Q166.069 47.5762 163.051 43.8062Q160.09 40.1079 155.847 37.4358Q151.546 34.7266 146.87 33.6663Q142.234 32.615 137.231 33.1851Q132.245 33.7529 127.974 35.8079Z" fill="url(#paint_linear_5_16_1)" fill-opacity="1.000000" fill-rule="evenodd"/>
	<g filter="url(#filter_5_9_dd)">
		<path id="Vector" d="M123.163 94.6843C122.191 85.9011 118.271 77.7097 112.045 71.4531C105.82 65.1965 97.6592 61.2458 88.9004 60.2488C80.1417 59.252 71.3049 61.2681 63.839 65.9663C56.3731 70.6648 50.7211 77.7668 47.8095 86.1079C41.1378 86.6555 34.9359 89.7688 30.5021 94.7964C26.0683 99.8242 23.7462 106.376 24.022 113.082C24.2978 119.787 27.1501 126.125 31.9818 130.77C36.8134 135.414 43.2499 138.005 49.944 138L123.396 138C129.126 138 134.621 135.718 138.672 131.656C142.724 127.595 145 122.086 145 116.342C145 110.598 142.724 105.089 138.672 101.028C134.621 96.9663 129.126 94.6843 123.396 94.6843L123.163 94.6843Z" fill="url(#paint_linear_5_9_0)" fill-opacity="1.000000" fill-rule="nonzero"/>
	</g>
	<path id="Vector" d="M123.163 94.6843C122.191 85.9011 118.271 77.7097 112.045 71.4531C105.82 65.1965 97.6592 61.2458 88.9004 60.2488C80.1417 59.252 71.3049 61.2681 63.839 65.9663C56.3731 70.6648 50.7211 77.7668 47.8095 86.1079C41.1378 86.6555 34.9359 89.7688 30.5021 94.7964C26.0683 99.8242 23.7462 106.376 24.022 113.082C24.2978 119.787 27.1501 126.125 31.9818 130.77C36.8134 135.414 43.2499 138.005 49.944 138L123.396 138C129.126 138 134.621 135.718 138.672 131.656C142.724 127.595 145 122.086 145 116.342C145 110.598 142.724 105.089 138.672 101.028C134.621 96.9663 129.126 94.6843 123.396 94.6843L123.163 94.6843ZM100.951 64.6907Q106.626 67.4238 111.337 72.1584Q115.994 76.8398 118.698 82.4609Q121.433 88.1467 122.169 94.7944L122.268 95.6843L123.396 95.6843Q127.644 95.6843 131.273 97.1833Q134.934 98.6958 137.964 101.734Q140.969 104.746 142.478 108.379Q144 112.044 144 116.342Q144 120.64 142.478 124.306Q140.969 127.938 137.964 130.95Q134.934 133.989 131.273 135.501Q127.644 137 123.396 137L49.9432 137Q44.951 137.004 40.65 135.281Q36.3105 133.543 32.6748 130.049Q29.0722 126.585 27.1598 122.358Q25.2288 118.089 25.0212 113.04Q24.8137 107.996 26.3851 103.584Q27.9436 99.2095 31.2521 95.458Q34.591 91.6719 38.7766 89.5815Q42.9192 87.5127 47.8913 87.1045L48.5394 87.0515L48.7537 86.4375Q50.9603 80.1157 54.9052 75.1841Q58.7939 70.323 64.3717 66.8127Q70.0069 63.2664 76.1316 61.8762Q82.2178 60.4949 88.7873 61.2424Q95.3402 61.9883 100.951 64.6907Z" fill="url(#paint_linear_5_9_1)" fill-opacity="1.000000" fill-rule="evenodd"/>
	<path id="Cloudy" d="M10.9414 8.14844C10.5469 5.66016 8.59766 4.20312 6.13672 4.20312C3.125 4.20312 0.902344 6.46094 0.902344 10.1836C0.902344 13.9023 3.11328 16.1602 6.13672 16.1602C8.69141 16.1602 10.5625 14.5586 10.9414 12.2539L9.17188 12.25C8.87109 13.7383 7.62109 14.5586 6.14844 14.5586C4.15234 14.5586 2.64844 13.0273 2.64844 10.1836C2.64844 7.35938 4.14844 5.80859 6.15234 5.80859C7.63672 5.80859 8.87891 6.64062 9.17188 8.14844L10.9414 8.14844ZM14.6069 4.36328L12.9077 4.36328L12.9077 16L14.6069 16L14.6069 4.36328ZM20.5664 16.1758C23.0273 16.1758 24.6367 14.375 24.6367 11.6758C24.6367 8.96094 23.0273 7.16016 20.5664 7.16016C18.1094 7.16016 16.5 8.96094 16.5 11.6758C16.5 14.375 18.1094 16.1758 20.5664 16.1758ZM20.5742 14.75C18.9648 14.75 18.2148 13.3477 18.2148 11.6719C18.2148 10 18.9648 8.57812 20.5742 8.57812C22.1719 8.57812 22.9219 10 22.9219 11.6719C22.9219 13.3477 22.1719 14.75 20.5742 14.75ZM32.0582 12.3789C32.0621 13.8633 30.9606 14.5664 30.0075 14.5664C28.9528 14.5664 28.2262 13.8086 28.2262 12.6211L28.2262 7.27344L26.527 7.27344L26.527 12.8242C26.527 14.9883 27.7145 16.1133 29.3903 16.1133C30.7028 16.1133 31.5973 15.4219 31.9996 14.4883L32.0895 14.4883L32.0895 16L33.7614 16L33.7614 7.27344L32.0582 7.27344L32.0582 12.3789ZM39.3079 16.1719C40.8977 16.1719 41.5227 15.1992 41.8313 14.6406L41.9719 14.6406L41.9719 16L43.6321 16L43.6321 4.36328L41.9329 4.36328L41.9329 8.6875L41.8313 8.6875C41.5227 8.14844 40.9446 7.16016 39.3196 7.16016C37.2102 7.16016 35.6594 8.82422 35.6594 11.6523C35.6594 14.4766 37.1868 16.1719 39.3079 16.1719ZM39.6829 14.7227C38.1634 14.7227 37.3743 13.3867 37.3743 11.6367C37.3743 9.90234 38.1477 8.60156 39.6829 8.60156C41.1634 8.60156 41.9602 9.8125 41.9602 11.6367C41.9602 13.4727 41.1477 14.7227 39.6829 14.7227ZM47.1239 19.2734C48.5302 19.2734 49.413 18.5391 49.9208 17.1641L53.5185 7.27344L51.6942 7.27344L49.4833 14.0469L49.3935 14.0469L47.1825 7.27344L45.3622 7.27344L48.5575 16.1133L48.3466 16.6914C47.913 17.8516 47.3075 17.9492 46.3739 17.6914L45.9677 19.0859C46.1708 19.1758 46.6122 19.2734 47.1239 19.2734Z" fill="#FFFFFF" fill-opacity="1.000000" fill-rule="evenodd"/>
</svg>
