<svg width="120.000000" height="121.000000" viewBox="0 0 120 121" fill="none" xmlns="http://www.w3.org/2000/svg" xmlns:xlink="http://www.w3.org/1999/xlink">
	<desc>
			Created with Pixso.
	</desc>
	<defs>
		<filter id="filter_2_104_dd" x="0.000000" y="0.000000" width="120.000000" height="121.000000" filterUnits="userSpaceOnUse" color-interpolation-filters="sRGB">
			<feFlood flood-opacity="0" result="BackgroundImageFix"/>
			<feGaussianBlur in="BackgroundImage" stdDeviation="8.33333"/>
			<feComposite in2="SourceAlpha" operator="in" result="effect_backgroundBlur_1"/>
			<feColorMatrix in="SourceAlpha" type="matrix" values="0 0 0 0 0 0 0 0 0 0 0 0 0 0 0 0 0 0 127 0" result="hardAlpha"/>
			<feOffset dx="0" dy="2"/>
			<feGaussianBlur stdDeviation="1.33333"/>
			<feComposite in2="hardAlpha" operator="out" k2="-1" k3="1"/>
			<feColorMatrix type="matrix" values="0 0 0 0 0 0 0 0 0 0 0 0 0 0 0 0 0 0 0.25 0"/>
			<feBlend mode="normal" in2="effect_backgroundBlur_1" result="effect_dropShadow_2"/>
			<feBlend mode="normal" in="SourceGraphic" in2="effect_dropShadow_2" result="shape"/>
		</filter>
		<linearGradient id="paint_linear_2_104_0" x1="106.846184" y1="13.838104" x2="3.999992" y2="110.182190" gradientUnits="userSpaceOnUse">
			<stop stop-color="#FAFF00" stop-opacity="0.988235"/>
			<stop offset="1.000000" stop-color="#FFC700" stop-opacity="0.509804"/>
		</linearGradient>
		<linearGradient id="paint_linear_2_104_1" x1="111.153839" y1="10.609535" x2="6.692276" y2="98.857147" gradientUnits="userSpaceOnUse">
			<stop stop-color="#FBFF42" stop-opacity="0.211765"/>
			<stop offset="1.000000" stop-color="#FFFFFF" stop-opacity="0.501961"/>
		</linearGradient>
	</defs>
	<g filter="url(#filter_2_104_dd)">
		<path id="Vector" d="M60 86.75C52.5739 86.75 45.452 83.7737 40.201 78.4758C34.95 73.178 32 65.9924 32 58.5C32 51.0076 34.95 43.822 40.201 38.5242C45.452 33.2263 52.5739 30.25 60 30.25C67.4261 30.25 74.548 33.2263 79.799 38.5242C85.05 43.822 88 51.0076 88 58.5C88 65.9924 85.05 73.178 79.799 78.4758C74.548 83.7737 67.4261 86.75 60 86.75ZM60 2C61.4852 2 62.9096 2.59521 63.9598 3.65479C65.01 4.71436 65.6 6.15161 65.6 7.6499L65.6 18.95C65.6 20.4485 65.01 21.8855 63.9598 22.9451C62.9096 24.0046 61.4852 24.6001 60 24.6001C58.5148 24.6001 57.0904 24.0046 56.0402 22.9451C54.99 21.8855 54.4 20.4485 54.4 18.95L54.4 7.6499C54.4 6.15161 54.99 4.71436 56.0402 3.65479C57.0904 2.59521 58.5148 2 60 2ZM60 92.3999C61.4852 92.3999 62.9096 92.9954 63.9598 94.0549C65.01 95.1145 65.6 96.5515 65.6 98.05L65.6 109.35C65.6 110.848 65.01 112.286 63.9598 113.345C62.9096 114.405 61.4852 115 60 115C58.5148 115 57.0904 114.405 56.0402 113.345C54.99 112.286 54.4 110.848 54.4 109.35L54.4 98.05C54.4 96.5515 54.99 95.1145 56.0402 94.0549C57.0904 92.9954 58.5148 92.3999 60 92.3999ZM9.59998 52.8501L20.8 52.8501C22.2852 52.8501 23.7096 53.4453 24.7598 54.5049C25.81 55.5645 26.4 57.0015 26.4 58.5C26.4 59.9985 25.81 61.4355 24.7598 62.4951C23.7096 63.5547 22.2852 64.1499 20.8 64.1499L9.59998 64.1499C8.11481 64.1499 6.69043 63.5547 5.6402 62.4951C4.59003 61.4355 4 59.9985 4 58.5C4 57.0015 4.59003 55.5645 5.6402 54.5049C6.69043 53.4453 8.11481 52.8501 9.59998 52.8501ZM99.2 52.8501L110.4 52.8501C111.885 52.8501 113.31 53.4453 114.36 54.5049C115.41 55.5645 116 57.0015 116 58.5C116 59.9985 115.41 61.4355 114.36 62.4951C113.31 63.5547 111.885 64.1499 110.4 64.1499L99.2 64.1499C97.7148 64.1499 96.2904 63.5547 95.2402 62.4951C94.19 61.4355 93.6 59.9985 93.6 58.5C93.6 57.0015 94.19 55.5645 95.2402 54.5049C96.2904 53.4453 97.7148 52.8501 99.2 52.8501ZM99.5976 18.5488C100.647 19.6084 101.237 21.0452 101.237 22.5435C101.237 24.0415 100.647 25.4785 99.5976 26.5378L91.6792 34.5271C91.1626 35.0667 90.5447 35.4971 89.8615 35.7932C89.1782 36.0894 88.4434 36.2451 87.6998 36.2517C86.9563 36.2583 86.2189 36.1152 85.5306 35.8313C84.8424 35.5471 84.2172 35.1277 83.6914 34.5972C83.1656 34.0667 82.7498 33.4358 82.4682 32.7415C82.1866 32.0471 82.0449 31.303 82.0514 30.5527C82.0579 29.8027 82.2123 29.0613 82.5059 28.3718C82.7993 27.6826 83.226 27.0591 83.7608 26.5378L91.6792 18.5488C92.7294 17.4897 94.1535 16.8945 95.6384 16.8945C97.1233 16.8945 98.5474 17.4897 99.5976 18.5488ZM36.2392 82.4729C37.2891 83.5325 37.8788 84.9692 37.8788 86.4675C37.8788 87.9656 37.2891 89.4026 36.2392 90.4622L28.3208 98.4512C27.8042 98.9907 27.1863 99.4211 26.5031 99.7173C25.8198 100.013 25.085 100.169 24.3414 100.176C23.5979 100.182 22.8605 100.039 22.1722 99.7554C21.484 99.4712 20.8588 99.0518 20.333 98.5212C19.8072 97.9907 19.3914 97.3599 19.1098 96.6655C18.8282 95.9712 18.6865 95.2271 18.693 94.4768C18.6995 93.7268 18.8539 92.9854 19.1475 92.2959C19.4409 91.6067 19.8676 90.9832 20.4024 90.4622L28.3208 82.4729C29.371 81.4138 30.7951 80.8186 32.28 80.8186C33.7649 80.8186 35.189 81.4138 36.2392 82.4729ZM28.3208 18.5488L36.2392 26.5378C37.2593 27.6035 37.8237 29.0308 37.811 30.5122C37.7982 31.9937 37.2093 33.4106 36.171 34.4583C35.1327 35.5059 33.7281 36.1001 32.2598 36.1128C30.7916 36.1257 29.377 35.5562 28.3208 34.5271L20.408 26.5378C19.3879 25.4724 18.8235 24.0452 18.8362 22.5637C18.849 21.0823 19.4379 19.6653 20.4762 18.6177C21.5145 17.5701 22.9191 16.9758 24.3873 16.9631C25.8557 16.9502 27.2702 17.5198 28.3264 18.5488L28.3208 18.5488ZM91.6792 82.4729L99.5976 90.4622C100.618 91.5276 101.182 92.9548 101.169 94.4363C101.157 95.9177 100.568 97.3347 99.5294 98.3823C98.4911 99.4299 97.0865 100.024 95.6182 100.037C94.15 100.05 92.7354 99.4802 91.6792 98.4512L83.7608 90.4622C83.226 89.9409 82.7993 89.3174 82.5059 88.6282C82.2123 87.9387 82.0579 87.1973 82.0514 86.4473C82.0449 85.697 82.1866 84.9529 82.4682 84.2585C82.7498 83.5642 83.1656 82.9333 83.6914 82.4028C84.2172 81.8723 84.8424 81.4529 85.5306 81.1687C86.2189 80.8848 86.9563 80.7417 87.6998 80.7483C88.4434 80.7549 89.1782 80.9106 89.8615 81.2068C90.5447 81.5029 91.1626 81.9333 91.6792 82.4729Z" fill="url(#paint_linear_2_104_0)" fill-opacity="1.000000" fill-rule="nonzero"/>
	</g>
	<path id="Vector" d="M60 2C61.4852 2 62.9096 2.59521 63.9598 3.65479C65.01 4.71436 65.6 6.15161 65.6 7.6499L65.6 18.95C65.6 20.4485 65.01 21.8855 63.9598 22.9451C62.9096 24.0046 61.4852 24.6001 60 24.6001C58.5148 24.6001 57.0904 24.0046 56.0402 22.9451C54.99 21.8855 54.4 20.4485 54.4 18.95L54.4 7.6499C54.4 6.15161 54.99 4.71436 56.0402 3.65479C57.0904 2.59521 58.5148 2 60 2ZM61.7339 3.32739Q62.5638 3.66699 63.2496 4.35889Q63.9123 5.02734 64.2498 5.83252Q64.6 6.66772 64.6 7.6499L64.6 18.95Q64.6 19.9321 64.2498 20.7676Q63.9122 21.5725 63.2496 22.2412Q62.5638 22.9331 61.7339 23.2727Q60.9339 23.6001 60 23.6001Q59.0661 23.6001 58.2661 23.2727Q57.4362 22.9331 56.7504 22.2412Q56.0878 21.5725 55.7502 20.7676Q55.4 19.9321 55.4 18.95L55.4 7.6499Q55.4 6.66772 55.7502 5.83252Q56.0878 5.02734 56.7504 4.35889Q57.4362 3.66699 58.2662 3.32739Q59.0661 3 60 3Q60.9339 3 61.7339 3.32739ZM26.9196 17.5488C26.1396 17.1594 25.2733 16.9553 24.3873 16.9631C22.9191 16.9758 21.5145 17.5701 20.4762 18.6177C19.4379 19.6653 18.849 21.0823 18.8362 22.5637C18.8235 24.0452 19.3879 25.4724 20.408 26.5378L28.3208 34.5271C29.377 35.5562 30.7916 36.1257 32.2598 36.1128C33.7281 36.1001 35.1327 35.5059 36.171 34.4583C37.2093 33.4106 37.7982 31.9937 37.811 30.5122C37.8237 29.0308 37.2593 27.6035 36.2392 26.5378L29.312 19.5488L28.3236 18.5518L28.3208 18.5488L28.3264 18.5488C28.3254 18.5479 28.3245 18.5471 28.3235 18.5461C27.9053 18.1392 27.4311 17.8042 26.9196 17.5488ZM27.5294 19.1709Q26.8807 18.5706 26.1146 18.2686Q25.3188 17.9548 24.3961 17.9629Q23.4741 17.9712 22.6841 18.2983Q21.8641 18.6379 21.1865 19.3215Q20.5322 19.9817 20.1948 20.7766Q19.8445 21.6018 19.8362 22.5723Q19.8276 23.5725 20.1815 24.4216Q20.5016 25.1897 21.1185 25.8342L29.0187 33.8108Q29.7075 34.4819 30.5327 34.8074Q31.3284 35.1211 32.2511 35.1128Q33.1732 35.1047 33.963 34.7776Q34.7831 34.438 35.4608 33.7544Q36.1151 33.0942 36.4523 32.2996Q36.8027 31.4741 36.811 30.5037Q36.8193 29.5337 36.4838 28.7026Q36.1616 27.905 35.5226 27.2356L27.5294 19.1709ZM99.5976 18.5488C100.647 19.6084 101.237 21.0452 101.237 22.5435C101.237 24.0415 100.647 25.4785 99.5976 26.5378L91.6792 34.5271C91.1626 35.0667 90.5447 35.4971 89.8615 35.7932C89.1782 36.0894 88.4434 36.2451 87.6998 36.2517C86.9563 36.2583 86.2189 36.1152 85.5306 35.8313C84.8424 35.5471 84.2172 35.1277 83.6914 34.5972C83.1656 34.0667 82.7498 33.4358 82.4682 32.7415C82.1866 32.0471 82.0449 31.303 82.0514 30.5527C82.0579 29.8027 82.2123 29.0613 82.5059 28.3718C82.7993 27.6826 83.226 27.0591 83.7608 26.5378L91.6792 18.5488C92.7294 17.4897 94.1535 16.8945 95.6384 16.8945C97.1233 16.8945 98.5474 17.4897 99.5976 18.5488ZM99.8868 20.7253Q100.237 21.5608 100.237 22.5435Q100.237 23.5254 99.8871 24.3606Q99.5497 25.1655 98.8873 25.834L90.9689 33.823Q90.5477 34.2629 90.0459 34.5723Q89.7673 34.7441 89.4638 34.8757Q89.0302 35.0637 88.577 35.1577Q88.143 35.2478 87.6911 35.2517Q87.2386 35.2556 86.8026 35.1731Q86.3485 35.0869 85.9122 34.9067Q85.5056 34.739 85.1443 34.5017Q84.7452 34.2397 84.4016 33.8931Q84.0903 33.5791 83.8476 33.2188Q83.5793 32.8203 83.3949 32.3655Q83.2226 31.9407 83.1367 31.499Q83.0472 31.0393 83.0514 30.5615Q83.0555 30.0825 83.1533 29.6235Q83.2468 29.1843 83.4259 28.7637Q83.6182 28.312 83.8934 27.9185Q84.1422 27.5625 84.4587 27.2542L92.3895 19.2527Q93.075 18.5615 93.9044 18.2219Q94.7044 17.8945 95.6384 17.8945Q96.5721 17.8945 97.3719 18.2219Q98.2017 18.5613 98.8875 19.2529Q99.5495 19.9211 99.8868 20.7253ZM60 86.75C52.5739 86.75 45.452 83.7737 40.201 78.4758C34.95 73.178 32 65.9924 32 58.5C32 51.0076 34.95 43.822 40.201 38.5242C45.452 33.2263 52.5739 30.25 60 30.25C67.4261 30.25 74.548 33.2263 79.799 38.5242C85.05 43.822 88 51.0076 88 58.5C88 65.9924 85.05 73.178 79.799 78.4758C74.548 83.7737 67.4261 86.75 60 86.75ZM49.7867 83.8174Q44.9269 81.8232 40.9113 77.7717Q37.0182 73.844 35.0409 69.1152Q33 64.2344 33 58.5Q33 52.7656 35.0409 47.8848Q37.0182 43.156 40.9113 39.2283Q44.9268 35.1768 49.7866 33.1826Q54.4968 31.25 60 31.25Q65.5031 31.25 70.2133 33.1826Q75.0731 35.1768 79.0887 39.2283Q82.9818 43.156 84.9592 47.885Q87 52.7659 87 58.5Q87 64.2344 84.9591 69.1152Q82.9818 73.844 79.0887 77.7717Q75.0731 81.8232 70.2133 83.8174Q65.5031 85.75 60 85.75Q54.4969 85.75 49.7867 83.8174ZM9.59998 52.8501L20.8 52.8501C22.2852 52.8501 23.7096 53.4453 24.7598 54.5049C25.81 55.5645 26.4 57.0015 26.4 58.5C26.4 59.9985 25.81 61.4355 24.7598 62.4951C23.7096 63.5547 22.2852 64.1499 20.8 64.1499L9.59998 64.1499C8.11481 64.1499 6.69043 63.5547 5.6402 62.4951C4.59003 61.4355 4 59.9985 4 58.5C4 57.0015 4.59003 55.5645 5.6402 54.5049C6.69043 53.4453 8.11481 52.8501 9.59998 52.8501ZM99.2 52.8501L110.4 52.8501C111.885 52.8501 113.31 53.4453 114.36 54.5049C115.41 55.5645 116 57.0015 116 58.5C116 59.9985 115.41 61.4355 114.36 62.4951C113.31 63.5547 111.885 64.1499 110.4 64.1499L99.2 64.1499C97.7148 64.1499 96.2904 63.5547 95.2402 62.4951C94.19 61.4355 93.6 59.9985 93.6 58.5C93.6 57.0015 94.19 55.5645 95.2402 54.5049C96.2904 53.4453 97.7148 52.8501 99.2 52.8501ZM9.59998 53.8501L20.8 53.8501Q21.7339 53.8501 22.5339 54.1772Q23.3638 54.5168 24.0496 55.2087Q24.7123 55.8774 25.0497 56.6824Q25.4 57.5178 25.4 58.5Q25.4 59.4822 25.0497 60.3176Q24.7122 61.1226 24.0496 61.7913Q23.3638 62.4832 22.534 62.8225Q21.7339 63.1499 20.8 63.1499L9.59998 63.1499Q8.66602 63.1499 7.86603 62.8225Q7.03613 62.4832 6.35046 61.7913Q5.68774 61.1226 5.35022 60.3176Q5 59.4822 5 58.5Q5 57.5178 5.35022 56.6824Q5.68774 55.8774 6.35046 55.2087Q7.03619 54.5168 7.86609 54.1772Q8.66608 53.8501 9.59998 53.8501ZM99.2 53.8501L110.4 53.8501Q111.334 53.8501 112.134 54.1772Q112.964 54.5168 113.65 55.2087Q114.312 55.8774 114.65 56.6824Q115 57.5178 115 58.5Q115 59.4822 114.65 60.3176Q114.312 61.1226 113.65 61.7913Q112.964 62.4832 112.134 62.8228Q111.334 63.1499 110.4 63.1499L99.2 63.1499Q98.2661 63.1499 97.466 62.8225Q96.6362 62.4832 95.9504 61.7913Q95.2878 61.1226 94.9503 60.3176Q94.6 59.4822 94.6 58.5Q94.6 57.5178 94.9503 56.6824Q95.2878 55.8774 95.9504 55.2087Q96.6362 54.5168 97.4661 54.1772Q98.2661 53.8501 99.2 53.8501ZM91.6792 82.4729L99.5976 90.4622C100.618 91.5276 101.182 92.9548 101.169 94.4363C101.157 95.9177 100.568 97.3347 99.5294 98.3823C98.4911 99.4299 97.0865 100.024 95.6182 100.037C94.15 100.05 92.7354 99.4802 91.6792 98.4512L83.7608 90.4622C83.226 89.9409 82.7993 89.3174 82.5059 88.6282C82.2123 87.9387 82.0579 87.1973 82.0514 86.4473C82.0449 85.697 82.1866 84.9529 82.4682 84.2585C82.7498 83.5642 83.1656 82.9333 83.6914 82.4028C84.2172 81.8723 84.8424 81.4529 85.5306 81.1687C86.2189 80.8848 86.9563 80.7417 87.6998 80.7483C88.4434 80.7549 89.1782 80.9106 89.8615 81.2068C90.5447 81.5029 91.1626 81.9333 91.6792 82.4729ZM36.2392 82.4729C37.2891 83.5325 37.8788 84.9692 37.8788 86.4675C37.8788 87.9656 37.2891 89.4026 36.2392 90.4622L28.3208 98.4512C27.8042 98.9907 27.1863 99.4211 26.5031 99.7173C25.8198 100.013 25.085 100.169 24.3414 100.176C23.5979 100.182 22.8605 100.039 22.1722 99.7554C21.484 99.4712 20.8588 99.0518 20.333 98.5212C19.8072 97.9907 19.3914 97.3599 19.1098 96.6655C18.8282 95.9712 18.6865 95.2271 18.693 94.4768C18.6995 93.7268 18.8539 92.9854 19.1475 92.2959C19.4409 91.6067 19.8676 90.9832 20.4024 90.4622L28.3208 82.4729C29.371 81.4138 30.7951 80.8186 32.28 80.8186C33.7649 80.8186 35.189 81.4138 36.2392 82.4729ZM90.9568 83.1646L98.8811 91.1597Q99.5201 91.8293 99.8422 92.627Q100.178 93.4578 100.169 94.4277Q100.161 95.3982 99.8107 96.2236Q99.4734 97.0183 98.8192 97.6785Q98.1415 98.3621 97.3215 98.7017Q96.5316 99.0288 95.6095 99.0371Q94.6868 99.0452 93.8909 98.7314Q93.0659 98.406 92.3771 97.7349L84.4711 89.7581Q84.0674 89.3647 83.7744 88.9014Q83.5744 88.585 83.4259 88.2363Q83.2467 87.8154 83.1532 87.3765Q83.0555 86.9175 83.0514 86.4385Q83.0472 85.9602 83.1368 85.5Q83.2228 85.0588 83.3949 84.6345Q83.5793 84.1797 83.8474 83.7815Q84.0902 83.4211 84.4016 83.1069Q84.7454 82.76 85.1447 82.498Q85.5057 82.261 85.9122 82.0933Q86.3481 81.9131 86.8019 81.8271Q87.2383 81.7444 87.6911 81.7483Q88.1426 81.7522 88.5763 81.842Q89.0298 81.9363 89.4638 82.1243Q89.8671 82.2991 90.2239 82.5422Q90.6189 82.8115 90.9568 83.1646ZM36.5284 84.6494Q36.8788 85.4849 36.8788 86.4675Q36.8788 87.4495 36.5287 88.2847Q36.1913 89.0896 35.5289 89.7583L27.6105 97.7471Q27.1893 98.187 26.6877 98.4963Q26.4089 98.6682 26.1054 98.7998Q25.6714 98.9878 25.218 99.082Q24.7842 99.1719 24.3327 99.1758Q23.8798 99.1797 23.4433 99.0969Q22.9897 99.0107 22.5538 98.8311Q22.1468 98.6628 21.7853 98.4255Q21.3865 98.1636 21.0432 97.8171Q20.7321 97.5032 20.4894 97.1431Q20.221 96.7446 20.0365 96.2898Q19.8643 95.865 19.7783 95.4233Q19.6888 94.9636 19.6929 94.4856Q19.6971 94.0068 19.7947 93.5481Q19.8882 93.1086 20.0675 92.6877Q20.2597 92.2363 20.5347 91.8428Q20.7836 91.4868 21.1003 91.1782L29.0311 83.177Q29.7165 82.4856 30.546 82.146Q31.346 81.8186 32.28 81.8186Q33.2137 81.8186 34.0136 82.146Q34.8434 82.4854 35.5291 83.177Q36.191 83.8452 36.5284 84.6494ZM60 92.3999C61.4852 92.3999 62.9096 92.9954 63.9598 94.0549C65.01 95.1145 65.6 96.5515 65.6 98.05L65.6 109.35C65.6 110.848 65.01 112.286 63.9598 113.345C62.9096 114.405 61.4852 115 60 115C58.5148 115 57.0904 114.405 56.0402 113.345C54.99 112.286 54.4 110.848 54.4 109.35L54.4 98.05C54.4 96.5515 54.99 95.1145 56.0402 94.0549C57.0904 92.9954 58.5148 92.3999 60 92.3999ZM61.7339 93.7273Q62.5638 94.0669 63.2496 94.7588Q63.9123 95.4275 64.2498 96.2324Q64.6 97.0679 64.6 98.05L64.6 109.35Q64.6 110.332 64.2498 111.167Q63.9123 111.973 63.2496 112.641Q62.5637 113.333 61.7337 113.673Q60.9338 114 60 114Q59.0662 114 58.2664 113.673Q57.4363 113.333 56.7504 112.641Q56.0878 111.973 55.7502 111.168Q55.4 110.332 55.4 109.35L55.4 98.05Q55.4 97.0676 55.7502 96.2324Q56.0878 95.4275 56.7504 94.7588Q57.4362 94.0669 58.2661 93.7273Q59.0661 93.3999 60 93.3999Q60.9339 93.3999 61.7339 93.7273Z" fill="url(#paint_linear_2_104_1)" fill-opacity="1.000000" fill-rule="evenodd"/>
</svg>
